<svg xmlns="http://www.w3.org/2000/svg" xmlns:xlink="http://www.w3.org/1999/xlink" style="width: 100%; height: 100%;" viewBox="0 0 44 44" preserveAspectRatio="none" width="44" height="44"><defs><svg width="44" height="44" viewBox="0 0 44 44" fill="none" xmlns="http://www.w3.org/2000/svg" id="svg468792844_1983">
          <path d="M4.94008 8.98877H1.39893V12.5299H4.94008V8.98877Z" fill="#242424"></path>
          <path d="M18.2205 8.98877H14.6793V12.5299H18.2205V8.98877Z" fill="#242424"></path>
          <path d="M4.94008 22.2687H1.39893V25.8099H4.94008V22.2687Z" fill="#242424"></path>
          <path d="M18.2205 22.2687H14.6793V25.8099H18.2205V22.2687Z" fill="#242424"></path>
          <path d="M16.4499 10.7594H3.16993V24.0393H16.4499V10.7594Z" stroke="#242424" stroke-linecap="round" stroke-linejoin="round" fill="none"></path>
          <path d="M7.02038 30.3188H1V36.3392H7.02038V30.3188Z" stroke="#242424" stroke-linecap="round" stroke-linejoin="round" fill="none"></path>
          <path d="M13.0403 30.3188H7.01996V36.3392H13.0403V30.3188Z" stroke="#242424" stroke-linecap="round" stroke-linejoin="round" fill="none"></path>
          <path d="M19.0607 30.3188H13.0403V36.3392H19.0607V30.3188Z" stroke="#242424" stroke-linecap="round" stroke-linejoin="round" fill="none"></path>
          <path d="M25.0811 30.3188H19.0607V36.3392H25.0811V30.3188Z" stroke="#242424" stroke-linecap="round" stroke-linejoin="round" fill="none"></path>
          <path d="M31.1015 30.3188H25.0811V36.3392H31.1015V30.3188Z" stroke="#242424" stroke-linecap="round" stroke-linejoin="round" fill="none"></path>
          <path d="M26.5687 7.66064C27.6251 7.66064 28.4827 8.51822 28.4827 9.57464V13.0257H24.6547V9.57464C24.6547 8.51822 25.5122 7.66064 26.5687 7.66064Z" fill="#242424" stroke="#242424" stroke-linecap="round" stroke-linejoin="round"></path>
          <path d="M30.615 13.0253H22.4868V16.0701H30.615V13.0253Z" stroke="#242424" stroke-linecap="round" stroke-linejoin="round" fill="none"></path>
          <path d="M25.0287 23.4203V16.0706H28.0735V23.4203L26.5509 25.8098L25.0287 23.4203Z" stroke="#242424" stroke-linecap="round" stroke-linejoin="round" fill="none"></path>
          <path d="M7.84131 19.7569L9.80946 15.0417" stroke="#242424" stroke-linecap="round" stroke-linejoin="round" fill="none"></path>
          <path d="M11.7776 19.7569L9.80946 15.0417" stroke="#242424" stroke-linecap="round" stroke-linejoin="round" fill="none"></path>
          <path d="M8.49454 18.1928H11.1248" stroke="#242424" stroke-linecap="round" stroke-linejoin="round" fill="none"></path>
        </svg></defs><use href="#svg468792844_1983"></use></svg>