<svg xmlns="http://www.w3.org/2000/svg" xmlns:xlink="http://www.w3.org/1999/xlink" style="width: 100%; height: 100%" viewBox="0 0 128 128" preserveAspectRatio="none" width="128" height="128"><defs><svg width="128" height="128" viewBox="0 0 128 128" fill="none" xmlns="http://www.w3.org/2000/svg" id="svg-1239319412_8642">
          <rect x="0.5" y="0.5" width="127" height="127" rx="63.5" fill="url(&quot;#svg-1239319412_8642_paint0_linear_477_5664&quot;)" stroke="url(&quot;#svg-1239319412_8642_paint1_linear_477_5664&quot;)"></rect>
          <path d="M77.9636 64.7054C77.9538 64.7054 77.9636 64.7054 77.9636 64.7054C74.4901 64.6264 64.8077 59.1466 63.1545 58.1988C61.9541 58.9985 56.2568 62.6616 53.4819 61.8914C52.3208 61.5755 51.6812 61.0226 51.5828 60.2623C51.4352 59.1565 52.2224 57.1127 60.6454 52.1463C67.8187 47.9204 75.7201 46.0346 103.587 46.0346C103.813 46.0346 104 46.2222 104 46.4493C104 46.6764 103.813 46.864 103.587 46.864C75.9169 46.864 68.104 48.7103 61.0685 52.8671C53.3048 57.4484 52.311 59.4033 52.4094 60.1636C52.4586 60.5585 52.9014 60.8745 53.7082 61.1016C55.9321 61.7137 61.1078 58.6233 62.9085 57.3792C63.0365 57.2904 63.2136 57.2805 63.3513 57.3595C63.4596 57.4286 74.4803 63.8069 77.9734 63.8859C78.1998 63.8958 78.3867 64.0834 78.3769 64.3104C78.3769 64.5277 78.1899 64.7054 77.9636 64.7054Z" fill="#242424"></path>
          <path d="M65.5948 50.5961C65.5063 50.5961 65.4079 50.5665 65.3292 50.4974C62.6626 48.2857 55.1252 44.6523 34.6582 45.2546L33.8021 45.2842C30.7517 45.3928 27.603 45.5903 24.4542 45.8569C24.2279 45.8766 24.0213 45.7088 24.0016 45.4817C23.9819 45.2546 24.1492 45.0472 24.3755 45.0275C27.5341 44.7609 30.6927 44.5634 33.7726 44.4548L34.6287 44.4252C55.3712 43.8229 63.0955 47.5749 65.8605 49.8655C66.0376 50.0136 66.0672 50.2703 65.9196 50.448C65.831 50.5468 65.7129 50.5961 65.5948 50.5961Z" fill="#242424"></path>
          <path d="M41.0148 72.1599C40.9164 72.1599 40.818 72.1204 40.7294 72.0513C39.8537 71.2417 38.0431 70.7184 35.3765 70.5012C35.0912 70.4716 34.8156 70.4518 34.5106 70.4321C32.2081 70.2938 29.3053 70.3531 25.6153 70.5802C25.389 70.59 25.1922 70.4222 25.1725 70.1951C25.1627 69.968 25.33 69.7705 25.5563 69.7508C29.2758 69.5138 32.2179 69.4645 34.55 69.6027C34.8648 69.6224 35.16 69.6422 35.4454 69.6718C38.3285 69.9088 40.2473 70.4814 41.2805 71.4392C41.4477 71.5971 41.4576 71.8539 41.3001 72.0316C41.2411 72.1106 41.1329 72.1599 41.0148 72.1599Z" fill="#242424"></path>
          <path d="M75.3757 78.084C75.3364 78.084 75.5135 78.0544 75.5135 78.0544C75.2872 78.0445 74.9132 77.8767 74.9231 77.6496C74.9329 77.4225 75.1396 77.2448 75.356 77.2547C75.4544 77.2547 78.062 77.304 78.5638 74.6876C79.1542 71.5873 75.297 66.532 67.9958 60.8252C67.8187 60.6869 67.7793 60.4203 67.9269 60.2426C68.0647 60.0649 68.3303 60.0254 68.5075 60.1735C76.1826 66.1667 80.0398 71.3799 79.3806 74.8455C78.8 77.9359 75.8087 78.084 75.3757 78.084Z" fill="#242424"></path>
          <path d="M71.243 80.9276C71.1938 80.9276 71.1446 80.9276 71.0954 80.9276C70.869 80.9276 70.6821 80.7301 70.6821 80.5031C70.6821 80.276 70.8887 80.0884 71.1052 80.0884C72.9059 80.1279 73.9588 79.6144 74.2441 78.5777C75.1494 75.2898 68.8814 67.5885 63.7941 64.6462C63.5973 64.5277 63.5285 64.2809 63.6465 64.0736C63.7646 63.8761 64.0106 63.807 64.2173 63.9255C69.0683 66.7295 76.1432 74.8455 75.051 78.8048C74.7755 79.7823 73.8997 80.9276 71.243 80.9276Z" fill="#242424"></path>
          <path d="M66.6871 83.7909C66.3328 83.7909 65.9589 83.7711 65.5653 83.7415C65.339 83.7217 65.1717 83.5243 65.1914 83.2873C65.2111 83.0602 65.4177 82.8924 65.644 82.9121C68.0351 83.1195 69.4619 82.6752 69.8654 81.5891C70.997 78.5974 64.9946 71.2318 60.547 67.9143C60.36 67.7761 60.3207 67.5193 60.4584 67.3318C60.5962 67.1442 60.8619 67.1145 61.039 67.2429C65.0438 70.2346 72.0695 78.1136 70.6427 81.8853C70.1507 83.159 68.8223 83.7909 66.6871 83.7909Z" fill="#242424"></path>
          <path d="M61.403 86.2297C59.6811 86.2297 57.7131 85.43 56.0501 83.4059C55.9025 83.2282 55.9321 82.9616 56.1092 82.8234C56.2863 82.6753 56.5421 82.7049 56.6897 82.8826C58.8643 85.5189 61.5802 85.8348 63.312 84.9659C64.5715 84.334 65.1717 83.1986 64.8864 81.994C64.296 79.5059 60.7241 75.2603 55.7943 71.1628C55.6172 71.0147 55.5877 70.758 55.7353 70.5803C55.8829 70.4025 56.1387 70.3828 56.3158 70.521C61.4522 74.7864 65.0438 79.111 65.6834 81.8064C66.0573 83.3763 65.2701 84.9166 63.6662 85.7163C63.0168 86.0421 62.2394 86.2297 61.403 86.2297Z" fill="#242424"></path>
          <path d="M43.7995 75.4083C43.1402 75.4083 42.5892 75.28 42.1464 75.1121C40.572 74.5 39.4305 72.9795 39.0173 70.9357C38.9681 70.7086 39.1157 70.4913 39.342 70.442C39.5683 70.3926 39.7848 70.5407 39.834 70.7678C40.1882 72.5253 41.1427 73.8187 42.4514 74.3321C44.0061 74.9344 45.9544 74.421 48.0798 72.8511C49.8018 71.5774 50.589 70.3827 50.1856 69.6422C49.7821 68.9017 48.2963 68.6647 47.0761 69.1387C44.5571 70.1161 41.2608 72.081 41.2312 72.1007C41.0344 72.2192 40.7786 72.1501 40.6605 71.9526C40.5425 71.7551 40.6113 71.4984 40.8081 71.38C40.9459 71.301 44.2029 69.3658 46.7809 68.3587C48.4144 67.7169 50.3135 68.1217 50.9236 69.2374C51.2975 69.9187 51.4844 71.3701 48.5718 73.5126C46.6235 74.9542 45.0294 75.4083 43.7995 75.4083Z" fill="#242424"></path>
          <path d="M46.3185 78.5776C45.8954 78.5776 45.4821 78.5184 45.0983 78.3999C43.7109 77.9951 42.5793 76.8695 41.8315 75.1416C41.7429 74.9343 41.8315 74.6875 42.048 74.5887C42.2546 74.4999 42.5006 74.5887 42.599 74.8059C43.0516 75.8427 43.8979 77.1756 45.3443 77.6001C46.6432 77.9852 48.1979 77.5804 49.9592 76.3956C52.3208 74.8158 52.5373 73.8383 52.4586 73.4039C52.3405 72.7917 51.4844 72.2586 50.097 71.9624C49.8707 71.913 49.7329 71.6958 49.7821 71.4687C49.8313 71.2416 50.0478 71.1034 50.2741 71.1527C52.0453 71.5477 53.0883 72.2685 53.2655 73.2558C53.4819 74.4011 52.5176 75.6847 50.4119 77.0966C48.9359 78.0839 47.5682 78.5776 46.3185 78.5776Z" fill="#242424"></path>
          <path d="M49.2114 81.599C48.867 81.599 48.5521 81.5595 48.2766 81.4904C46.8695 81.1645 45.6986 80.0883 44.9802 78.4493C44.8917 78.242 44.9803 77.9951 45.1967 77.8964C45.4034 77.8076 45.6494 77.8964 45.7478 78.1136C46.3578 79.4959 47.3221 80.4141 48.4636 80.6807C49.8215 80.9967 51.4155 80.424 53.0687 79.022C54.397 77.8964 55.0366 76.7807 54.8398 75.9612C54.6332 75.1318 53.6098 74.7369 52.7833 74.5592C52.557 74.5098 52.4192 74.2926 52.4684 74.0655C52.5176 73.8384 52.7439 73.7002 52.9604 73.7495C54.8693 74.1741 55.4794 75.0825 55.6467 75.7637C55.9321 76.9189 55.2039 78.3012 53.6098 79.6638C51.819 81.1843 50.3233 81.599 49.2114 81.599Z" fill="#242424"></path>
          <path d="M51.7599 84.4425C51.4155 84.4425 51.1007 84.403 50.8252 84.3339C49.418 84.0081 48.2471 82.9319 47.5288 81.2929C47.4402 81.0856 47.5288 80.8387 47.7453 80.74C47.9519 80.6511 48.1979 80.74 48.2963 80.9572C48.9064 82.3395 49.8707 83.2577 51.022 83.5243C52.3799 83.8403 53.9739 83.2676 55.627 81.8656C56.9554 80.74 57.595 79.6243 57.3982 78.8048C57.1916 77.9754 56.1682 77.5805 55.3417 77.4027C55.1153 77.3534 54.9776 77.1362 55.0268 76.9091C55.076 76.682 55.2925 76.5437 55.5188 76.5931C57.4277 77.0177 58.028 77.926 58.2051 78.6073C58.4904 79.7625 57.7721 81.1448 56.1682 82.5073C54.3675 84.0278 52.8719 84.4425 51.7599 84.4425Z" fill="#242424"></path>
          <path d="M79.0361 72.16C78.8689 72.16 78.7016 72.0514 78.6426 71.8835C78.5638 71.6663 78.6819 71.4293 78.8984 71.3503C81.5158 70.442 87.3115 70.3729 93.1859 70.4321C93.4123 70.4321 93.5992 70.6197 93.5992 70.8567C93.5992 71.0838 93.4123 71.2714 93.1859 71.2714C87.3902 71.2121 81.6831 71.2812 79.1837 72.1501C79.1345 72.1501 79.0853 72.16 79.0361 72.16Z" fill="#242424"></path>
          <path d="M35.4159 70.0866C35.1305 70.0569 34.855 70.0372 34.5401 70.0174C32.2868 61.8027 32.0408 53.2128 33.7824 44.8697C34.0776 44.8598 34.3532 44.8499 34.6385 44.84C32.8477 53.2226 33.1232 61.8422 35.4159 70.0866Z" fill="#242424"></path>
          <path d="M28.0344 61.6997C28.0445 63.0924 28.0546 64.4851 28.0746 65.8774C28.0837 66.4106 28.9103 66.3812 28.9012 65.848C28.891 64.4554 28.8809 63.0627 28.861 61.6703C28.8617 61.1368 28.0352 61.1662 28.0344 61.6997Z" fill="#242424"></path>
          <path fill-rule="evenodd" clip-rule="evenodd" d="M92.1527 73.6011H103.587C103.813 73.6011 104 73.4135 104 73.1865V44.8693C104 44.6422 103.813 44.4546 103.587 44.4546H89.5747C89.4566 44.4546 89.3484 44.504 89.2696 44.5928C89.1909 44.6718 89.1516 44.7903 89.1614 44.9088L91.7395 73.2259C91.7591 73.4333 91.9363 73.6011 92.1527 73.6011Z" fill="url(&quot;#svg-1239319412_8642_paint2_linear_477_5664&quot;)"></path>
          <defs>
            <linearGradient id="svg-1239319412_8642_paint0_linear_477_5664" x1="64" y1="0" x2="64" y2="128" gradientUnits="userSpaceOnUse">
              <stop stop-color="#F6F5F4"></stop>
              <stop offset="1" stop-color="white"></stop>
            </linearGradient>
            <linearGradient id="svg-1239319412_8642_paint1_linear_477_5664" x1="64" y1="0" x2="64" y2="128" gradientUnits="userSpaceOnUse">
              <stop stop-color="#ECEBEA"></stop>
              <stop offset="1" stop-color="#ECEBEA" stop-opacity="0"></stop>
            </linearGradient>
            <linearGradient id="svg-1239319412_8642_paint2_linear_477_5664" x1="96.58" y1="44.4546" x2="96.58" y2="73.6011" gradientUnits="userSpaceOnUse">
              <stop stop-color="#242424"></stop>
              <stop offset="1" stop-color="#4A4A4A"></stop>
            </linearGradient>
          <linearGradient id="svg-1239319412_8642_paint1_linear_477_5664" x1="64" y1="0" x2="64" y2="128" gradientUnits="userSpaceOnUse">
              <stop stop-color="#ECEBEA"></stop>
              <stop offset="1" stop-color="#ECEBEA" stop-opacity="0"></stop>
            </linearGradient><linearGradient id="svg-1239319412_8642_paint0_linear_477_5664" x1="64" y1="0" x2="64" y2="128" gradientUnits="userSpaceOnUse">
              <stop stop-color="#F6F5F4"></stop>
              <stop offset="1" stop-color="white"></stop>
            </linearGradient><linearGradient id="svg-1239319412_8642_paint2_linear_477_5664" x1="96.58" y1="44.4546" x2="96.58" y2="73.6011" gradientUnits="userSpaceOnUse">
              <stop stop-color="#242424"></stop>
              <stop offset="1" stop-color="#4A4A4A"></stop>
            </linearGradient><linearGradient id="svg-1239319412_8642_paint1_linear_477_5664" x1="64" y1="0" x2="64" y2="128" gradientUnits="userSpaceOnUse">
              <stop stop-color="#ECEBEA"></stop>
              <stop offset="1" stop-color="#ECEBEA" stop-opacity="0"></stop>
            </linearGradient><linearGradient id="svg-1239319412_8642_paint0_linear_477_5664" x1="64" y1="0" x2="64" y2="128" gradientUnits="userSpaceOnUse">
              <stop stop-color="#F6F5F4"></stop>
              <stop offset="1" stop-color="white"></stop>
            </linearGradient><linearGradient id="svg-1239319412_8642_paint2_linear_477_5664" x1="96.58" y1="44.4546" x2="96.58" y2="73.6011" gradientUnits="userSpaceOnUse">
              <stop stop-color="#242424"></stop>
              <stop offset="1" stop-color="#4A4A4A"></stop>
            </linearGradient><linearGradient id="svg-1239319412_8642_paint1_linear_477_5664" x1="64" y1="0" x2="64" y2="128" gradientUnits="userSpaceOnUse">
              <stop stop-color="#ECEBEA"></stop>
              <stop offset="1" stop-color="#ECEBEA" stop-opacity="0"></stop>
            </linearGradient><linearGradient id="svg-1239319412_8642_paint0_linear_477_5664" x1="64" y1="0" x2="64" y2="128" gradientUnits="userSpaceOnUse">
              <stop stop-color="#F6F5F4"></stop>
              <stop offset="1" stop-color="white"></stop>
            </linearGradient><linearGradient id="svg-1239319412_8642_paint2_linear_477_5664" x1="96.58" y1="44.4546" x2="96.58" y2="73.6011" gradientUnits="userSpaceOnUse">
              <stop stop-color="#242424"></stop>
              <stop offset="1" stop-color="#4A4A4A"></stop>
            </linearGradient></defs>
        </svg></defs><use href="#svg-1239319412_8642"></use></svg>