<svg xmlns="http://www.w3.org/2000/svg" xmlns:xlink="http://www.w3.org/1999/xlink" style="width: 100%; height: 100%" viewBox="0 0 42 44" preserveAspectRatio="none" width="42" height="44"><defs><svg width="42" height="44" viewBox="0 0 42 44" fill="none" xmlns="http://www.w3.org/2000/svg" id="svg-1481518347_2549">
          <path d="M31.2026 21.5769V32.3231" stroke="#242424" stroke-miterlimit="10" stroke-linecap="round" stroke-linejoin="round" fill="none"></path>
          <path d="M3.57956 32.323V15.3153C3.57956 14.0884 4.54879 13.073 5.71994 13.073H27.8507" stroke="#242424" stroke-miterlimit="10" stroke-linecap="round" stroke-linejoin="round" fill="none"></path>
          <path d="M14.443 32.323C14.443 33.1692 15.0892 33.5499 15.8969 33.5499H18.8449C19.6526 33.5499 20.2988 33.1692 20.2988 32.323H33.7065V33.8038C33.7065 34.6922 33.0199 35.4115 32.1719 35.4115H2.48917C1.6411 35.4115 0.954559 34.6922 0.954559 33.8038V32.323H14.443Z" stroke="#242424" stroke-miterlimit="10" stroke-linecap="round" stroke-linejoin="round" fill="none"></path>
          <path d="M10.122 21.5769H12.5451" stroke="#242424" stroke-miterlimit="10" stroke-linecap="round" stroke-linejoin="round" fill="none"></path>
          <path d="M7.2952 19.0386L8.50673 20.3078L7.2952 21.577" stroke="#242424" stroke-miterlimit="10" stroke-linecap="round" stroke-linejoin="round" fill="none"></path>
          <path d="M7.2952 26.7385H9.71827" stroke="#242424" stroke-miterlimit="10" stroke-linecap="round" stroke-linejoin="round" fill="none"></path>
          <path d="M11.3334 26.7385H14.968" stroke="#242424" stroke-miterlimit="10" stroke-linecap="round" stroke-linejoin="round" fill="none"></path>
          <path d="M7.2952 24.2H11.5356" stroke="#242424" stroke-miterlimit="10" stroke-linecap="round" stroke-linejoin="round" fill="none"></path>
          <path d="M13.3529 24.2H15.776" stroke="#242424" stroke-miterlimit="10" stroke-linecap="round" stroke-linejoin="round" fill="none"></path>
          <path d="M17.3911 24.2H20.6219" stroke="#242424" stroke-miterlimit="10" stroke-linecap="round" stroke-linejoin="round" fill="none"></path>
          <path d="M36.049 15.2307L33.6663 16.7961L31.2029 18.4038L28.7798 16.7961L26.3567 15.2307L28.7798 13.623L31.2029 15.2307H31.2433L33.626 13.623L36.049 15.2307Z" fill="#242424"></path>
          <path d="M33.6663 16.7961L36.049 18.4038L31.2029 21.5769L26.3567 18.4038L28.7798 16.7961" stroke="#242424" stroke-miterlimit="10" stroke-linecap="round" stroke-linejoin="round" fill="none"></path>
          <path d="M31.2026 15.2308V15.1885L31.243 15.2308" stroke="#242424" stroke-miterlimit="10" stroke-linecap="round" stroke-linejoin="round" fill="none"></path>
          <path d="M28.7798 13.623L26.3567 15.2307L28.7798 16.7961L31.2029 18.4038L33.6663 16.7961L36.049 15.2307L33.626 13.623" stroke="#242424" stroke-miterlimit="10" stroke-linecap="round" stroke-linejoin="round" fill="none"></path>
          <path d="M28.7798 13.623L26.3567 12.0576L31.2029 8.88452L36.049 12.0576L33.626 13.623L31.2433 15.2307H31.2029L28.7798 13.623Z" stroke="#242424" stroke-miterlimit="10" stroke-linecap="round" stroke-linejoin="round" fill="none"></path>
        </svg></defs><use href="#svg-1481518347_2549"></use></svg>