<svg xmlns="http://www.w3.org/2000/svg" xmlns:xlink="http://www.w3.org/1999/xlink" style="width: 100%; height: 100%" viewBox="0 0 44 44" preserveAspectRatio="none" width="44" height="44"><defs><svg width="44" height="44" viewBox="0 0 44 44" fill="none" xmlns="http://www.w3.org/2000/svg" id="svg1367543754_2103">
          <path d="M27.6581 17.1726L17.9485 22.9646V17.1726H27.6581Z" fill="#242424"></path>
          <path d="M7.71851 13.3226C8.13909 13.3226 8.48005 12.9817 8.48005 12.5611C8.48005 12.1405 8.13909 11.7996 7.71851 11.7996C7.29792 11.7996 6.95697 12.1405 6.95697 12.5611C6.95697 12.9817 7.29792 13.3226 7.71851 13.3226Z" fill="#242424"></path>
          <path d="M5.54813 13.3226C5.96871 13.3226 6.30967 12.9817 6.30967 12.5611C6.30967 12.1405 5.96871 11.7996 5.54813 11.7996C5.12754 11.7996 4.78659 12.1405 4.78659 12.5611C4.78659 12.9817 5.12754 13.3226 5.54813 13.3226Z" fill="#242424"></path>
          <path d="M3.37775 13.3226C3.79834 13.3226 4.13929 12.9817 4.13929 12.5611C4.13929 12.1405 3.79834 11.7996 3.37775 11.7996C2.95716 11.7996 2.61621 12.1405 2.61621 12.5611C2.61621 12.9817 2.95716 13.3226 3.37775 13.3226Z" fill="#242424"></path>
          <path d="M31.4615 14.6554V32.065C31.4615 32.8858 30.7931 33.5543 29.9723 33.5543H2.48923C1.66846 33.5543 1 32.8858 1 32.065V11.935C1 11.1143 1.66846 10.4458 2.48923 10.4458H29.9723C30.7931 10.4458 31.4615 11.1143 31.4615 11.935V14.6554Z" stroke="#242424" stroke-linecap="round" stroke-linejoin="round" fill="none"></path>
          <path d="M1 14.6554H31.4615" stroke="#242424" stroke-linecap="round" stroke-linejoin="round" fill="none"></path>
          <path d="M27.6581 17.1727H17.9485V22.9647H27.6581V17.1727Z" stroke="#242424" stroke-linecap="round" stroke-linejoin="round" fill="none"></path>
          <path d="M15.3212 17.1727H4.80347V30.9947H15.3212V17.1727Z" stroke="#242424" stroke-linecap="round" stroke-linejoin="round" fill="none"></path>
          <path d="M4.80347 30.9947L10.0623 24.0858L15.3212 17.1727" stroke="#242424" stroke-linecap="round" stroke-linejoin="round" fill="none"></path>
          <path d="M4.80347 17.1727L10.0623 24.0858L15.3212 30.9947" stroke="#242424" stroke-linecap="round" stroke-linejoin="round" fill="none"></path>
          <path d="M17.9485 22.9647L27.6581 17.1727" stroke="#242424" stroke-linecap="round" stroke-linejoin="round" fill="none"></path>
          <path d="M17.9485 26.1631H27.6581" stroke="#242424" stroke-linecap="round" stroke-linejoin="round" fill="none"></path>
          <path d="M17.9485 29.0316H22.8011" stroke="#242424" stroke-linecap="round" stroke-linejoin="round" fill="none"></path>
        </svg></defs><use href="#svg1367543754_2103"></use></svg>